<?xml version="1.0" encoding="UTF-8" standalone="no"?>
<!-- Created with Inkscape (http://www.inkscape.org/) -->

<svg
   xmlns:dc="http://purl.org/dc/elements/1.1/"
   xmlns:cc="http://creativecommons.org/ns#"
   xmlns:rdf="http://www.w3.org/1999/02/22-rdf-syntax-ns#"
   xmlns:svg="http://www.w3.org/2000/svg"
   xmlns="http://www.w3.org/2000/svg"
   xmlns:sodipodi="http://sodipodi.sourceforge.net/DTD/sodipodi-0.dtd"
   xmlns:inkscape="http://www.inkscape.org/namespaces/inkscape"
   version="1.1"
   id="svg2"
   width="331.59039"
   height="83.477829"
   viewBox="0 0 331.59039 83.477826"
   sodipodi:docname="doab-peerreview-no-fonts.svg"
   inkscape:version="0.92.3 (2405546, 2018-03-11)"
   inkscape:export-filename="/home/acdhirr/JavaProjects2017/doabwebsite/src/main/webapp/static-assets/images/layout/doab-peerreview.svg.2020_10_26_14_41_32.0-2.svg.png"
   inkscape:export-xdpi="27.503813"
   inkscape:export-ydpi="27.503813">
  <metadata
     id="metadata8">
    <rdf:RDF>
      <cc:Work
         rdf:about="">
        <dc:format>image/svg+xml</dc:format>
        <dc:type
           rdf:resource="http://purl.org/dc/dcmitype/StillImage" />
        <dc:title></dc:title>
      </cc:Work>
    </rdf:RDF>
  </metadata>
  <defs
     id="defs6" />
  <sodipodi:namedview
     pagecolor="#ffffff"
     bordercolor="#666666"
     borderopacity="1"
     objecttolerance="10"
     gridtolerance="10"
     guidetolerance="10"
     inkscape:pageopacity="0"
     inkscape:pageshadow="2"
     inkscape:window-width="1920"
     inkscape:window-height="1141"
     id="namedview4"
     showgrid="false"
     inkscape:zoom="3.4592275"
     inkscape:cx="94.50062"
     inkscape:cy="-0.053591031"
     inkscape:window-x="0"
     inkscape:window-y="0"
     inkscape:window-maximized="1"
     inkscape:current-layer="g1519"
     fit-margin-top="2.5"
     fit-margin-left="2.5"
     fit-margin-right="2.5"
     fit-margin-bottom="2.5" />
  <g
     inkscape:groupmode="layer"
     id="g1519"
     inkscape:label="peer review certified by"
     style="display:inline"
     transform="translate(-97.379885,-3.3521634)">
    <g
       id="g1529"
       transform="matrix(0.39699673,0,0,0.39417522,-58.452444,37.938045)">
      <g
         aria-label="peer  review"
         style="font-style:normal;font-variant:normal;font-weight:normal;font-stretch:normal;font-size:107.09629059px;line-height:150%;font-family:'Ubuntu Condensed';-inkscape-font-specification:'Ubuntu Condensed, ';text-align:start;letter-spacing:-5.02013874px;word-spacing:0px;text-anchor:start;fill:#000000;fill-opacity:1;stroke:none;stroke-width:1.25503469px;stroke-linecap:butt;stroke-linejoin:miter;stroke-opacity:1"
         id="text1509">
        <path
           d="m 408.03555,-11.46617 q 3.1058,1.7135409 6.63997,1.7135409 2.67741,0 4.71224,-1.0709629 2.03483,-1.070963 3.42708,-3.534178 1.49935,-2.463214 2.24902,-6.532873 0.74968,-4.069659 0.74968,-10.067052 0,-11.566399 -2.9987,-16.492828 -2.8916,-5.033526 -9.31738,-5.033526 -1.17806,0 -2.57031,0.214193 -1.39225,0.107096 -2.8916,0.535481 z m 0,28.273421 h -9.21028 v -74.539018 q 2.9987,-1.285156 6.74707,-2.03483 3.85546,-0.85677 7.81803,-0.85677 5.89029,0 10.06705,2.034829 4.28385,2.03483 6.85416,5.890296 2.67741,3.748371 3.85547,9.317378 1.28515,5.46191 1.28515,12.530266 0,14.243806 -4.60514,21.7405467 -4.49804,7.4967403 -14.77929,7.4967403 -2.46321,0 -4.39094,-0.5354815 -1.92774,-0.4283851 -3.64128,-1.2851554 z"
           style="letter-spacing:-5.05582333px;stroke-width:1.25503469px"
           id="path1613"
           inkscape:connector-curvature="0" />
        <path
           d="m 450.18744,-28.387384 q 0.1071,4.069659 0.74967,7.496741 0.64258,3.319985 2.03483,5.890296 1.49935,2.463214 3.85547,3.855466 2.46321,1.3922519 6.21158,1.3922519 3.1058,0 5.67611,-0.8567699 2.6774,-0.963867 3.85546,-1.606445 l 1.71354,7.3896443 q -1.39225,0.9638666 -4.71223,2.0348295 -3.21289,1.1780592 -7.71094,1.1780592 -5.89029,0 -9.95995,-2.1419258 -3.96256,-2.1419258 -6.53287,-5.9973923 -2.46322,-3.8554669 -3.53418,-9.2102809 -1.07096,-5.354815 -1.07096,-11.780592 0,-15.528962 5.14062,-22.704414 5.14062,-7.175451 13.60123,-7.175451 9.53157,0 13.49413,7.175451 3.96256,7.175452 3.96256,20.134103 0,1.178059 0,2.463215 0,1.178059 -0.10709,2.463214 z m 9.31738,-24.417954 q -4.60514,0 -6.74707,4.605141 -2.03483,4.60514 -2.46321,12.316073 h 17.02831 q 0,-7.818029 -1.60645,-12.316073 -1.60644,-4.605141 -6.21158,-4.605141 z"
           style="letter-spacing:-5.05582333px;stroke-width:1.25503469px"
           id="path1615"
           inkscape:connector-curvature="0" />
        <path
           d="m 491.77707,-28.387384 q 0.1071,4.069659 0.74968,7.496741 0.64257,3.319985 2.03483,5.890296 1.49934,2.463214 3.85546,3.855466 2.46322,1.3922519 6.21159,1.3922519 3.10579,0 5.6761,-0.8567699 2.67741,-0.963867 3.85547,-1.606445 l 1.71354,7.3896443 q -1.39225,0.9638666 -4.71224,2.0348295 -3.21289,1.1780592 -7.71093,1.1780592 -5.8903,0 -9.95996,-2.1419258 -3.96256,-2.1419258 -6.53287,-5.9973923 -2.46321,-3.8554669 -3.53418,-9.2102809 -1.07096,-5.354815 -1.07096,-11.780592 0,-15.528962 5.14062,-22.704414 5.14062,-7.175451 13.60123,-7.175451 9.53157,0 13.49413,7.175451 3.96257,7.175452 3.96257,20.134103 0,1.178059 0,2.463215 0,1.178059 -0.1071,2.463214 z m 9.31738,-24.417954 q -4.60514,0 -6.74707,4.605141 -2.03483,4.60514 -2.46321,12.316073 h 17.02831 q 0,-7.818029 -1.60644,-12.316073 -1.60645,-4.605141 -6.21159,-4.605141 z"
           style="letter-spacing:-5.05582333px;stroke-width:1.25503469px"
           id="path1617"
           inkscape:connector-curvature="0" />
        <path
           d="m 551.35887,-50.877605 q -3.42708,-1.499348 -7.71093,-1.499348 -3.96256,0 -7.38964,1.392252 v 47.9791382 h -9.21029 V -56.767901 q 3.1058,-1.499348 7.06836,-2.463214 4.06966,-1.070963 8.88899,-1.070963 2.57031,0 5.14062,0.321289 2.57031,0.321288 4.81934,1.178059 z"
           style="letter-spacing:-5.05582333px;stroke-width:1.25503469px"
           id="path1619"
           inkscape:connector-curvature="0" />
        <path
           d="m 613.16687,-50.877605 q -3.42708,-1.499348 -7.71093,-1.499348 -3.96256,0 -7.38965,1.392252 v 47.9791382 h -9.21028 V -56.767901 q 3.1058,-1.499348 7.06836,-2.463214 4.06966,-1.070963 8.88899,-1.070963 2.57031,0 5.14062,0.321289 2.57031,0.321288 4.81934,1.178059 z"
           style="letter-spacing:-5.05582333px;stroke-width:1.25503469px"
           id="path1621"
           inkscape:connector-curvature="0" />
        <path
           d="m 624.21397,-28.387384 q 0.1071,4.069659 0.74967,7.496741 0.64258,3.319985 2.03483,5.890296 1.49935,2.463214 3.85547,3.855466 2.46322,1.3922519 6.21159,1.3922519 3.10579,0 5.6761,-0.8567699 2.67741,-0.963867 3.85547,-1.606445 l 1.71354,7.3896443 q -1.39226,0.9638666 -4.71224,2.0348295 -3.21289,1.1780592 -7.71093,1.1780592 -5.8903,0 -9.95996,-2.1419258 -3.96256,-2.1419258 -6.53287,-5.9973923 -2.46322,-3.8554669 -3.53418,-9.2102809 -1.07096,-5.354815 -1.07096,-11.780592 0,-15.528962 5.14062,-22.704414 5.14062,-7.175451 13.60123,-7.175451 9.53157,0 13.49413,7.175451 3.96256,7.175452 3.96256,20.134103 0,1.178059 0,2.463215 0,1.178059 -0.10709,2.463214 z m 9.31738,-24.417954 q -4.60514,0 -6.74707,4.605141 -2.03483,4.60514 -2.46321,12.316073 h 17.02831 q 0,-7.818029 -1.60645,-12.316073 -1.60644,-4.605141 -6.21158,-4.605141 z"
           style="letter-spacing:-5.05582333px;stroke-width:1.25503469px"
           id="path1623"
           inkscape:connector-curvature="0" />
        <path
           d="m 671.92316,-13.822288 q 1.28516,-4.283852 2.67741,-10.067051 1.49935,-5.7832 2.8916,-11.887689 1.39225,-6.211585 2.57031,-12.316073 1.28516,-6.104489 2.14193,-11.138014 h 9.21028 q -1.39225,7.068355 -3.31999,14.886384 -1.82063,7.818029 -3.85546,15.421866 -1.92774,7.49674 -3.96256,14.243807 -2.03483,6.7470659 -3.74838,11.6734952 h -9.53156 q -1.71355,-4.9264293 -3.74838,-11.6734952 -2.03482,-6.747067 -4.06965,-14.243807 -1.92774,-7.603837 -3.85547,-15.421866 -1.82064,-7.818029 -3.21289,-14.886384 h 9.74576 q 0.85677,5.033525 2.03483,11.138014 1.28516,6.104488 2.57031,12.316073 1.39226,6.104489 2.78451,11.887689 1.39225,5.783199 2.6774,10.067051 z"
           style="letter-spacing:-5.05582333px;stroke-width:1.25503469px"
           id="path1625"
           inkscape:connector-curvature="0" />
        <path
           d="m 705.47389,-3.0055628 h -9.21028 V -59.231115 h 9.21028 z M 700.86875,-69.19107 q -2.46322,0 -4.28386,-1.606445 -1.71354,-1.71354 -1.71354,-4.498044 0,-2.784503 1.71354,-4.390948 1.82064,-1.71354 4.28386,-1.71354 2.46321,0 4.17675,1.71354 1.82064,1.606445 1.82064,4.390948 0,2.784504 -1.82064,4.498044 -1.71354,1.606445 -4.17675,1.606445 z"
           style="letter-spacing:-5.05582333px;stroke-width:1.25503469px"
           id="path1627"
           inkscape:connector-curvature="0" />
        <path
           d="m 723.46382,-28.387384 q 0.10709,4.069659 0.74967,7.496741 0.64258,3.319985 2.03483,5.890296 1.49935,2.463214 3.85547,3.855466 2.46321,1.3922519 6.21158,1.3922519 3.1058,0 5.67611,-0.8567699 2.6774,-0.963867 3.85546,-1.606445 l 1.71354,7.3896443 q -1.39225,0.9638666 -4.71223,2.0348295 -3.21289,1.1780592 -7.71094,1.1780592 -5.89029,0 -9.95995,-2.1419258 -3.96256,-2.1419258 -6.53288,-5.9973923 -2.46321,-3.8554669 -3.53417,-9.2102809 -1.07097,-5.354815 -1.07097,-11.780592 0,-15.528962 5.14063,-22.704414 5.14062,-7.175451 13.60123,-7.175451 9.53156,0 13.49413,7.175451 3.96256,7.175452 3.96256,20.134103 0,1.178059 0,2.463215 0,1.178059 -0.1071,2.463214 z m 9.31738,-24.417954 q -4.60515,0 -6.74707,4.605141 -2.03483,4.60514 -2.46322,12.316073 h 17.02831 q 0,-7.818029 -1.60644,-12.316073 -1.60644,-4.605141 -6.21158,-4.605141 z"
           style="letter-spacing:-5.05582333px;stroke-width:1.25503469px"
           id="path1629"
           inkscape:connector-curvature="0" />
        <path
           d="m 773.51409,-3.0055628 h -9.31738 q -3.31999,-11.0309182 -6.31868,-25.3818212 -2.8916,-14.350903 -5.35482,-30.843731 h 9.10319 q 0.42838,4.60514 1.28515,10.816725 0.85677,6.104489 1.82064,12.637362 1.07096,6.425778 2.14193,12.530266 1.07096,5.997393 2.03482,10.281244 0.96387,-4.283851 2.14193,-10.495436 1.28516,-6.211585 2.46322,-12.744459 1.28515,-6.532874 2.35611,-12.637362 1.07097,-6.211585 1.71354,-10.38834 h 8.6748 q 0.42839,4.176755 1.28516,10.281244 0.96387,6.104488 1.92773,12.744458 1.07097,6.532874 2.14193,12.744459 1.07096,6.211585 1.92773,10.495436 0.96387,-4.283851 2.03483,-10.38834 1.07096,-6.104489 2.03483,-12.530266 1.07096,-6.425777 1.92773,-12.530266 0.85677,-6.211585 1.28516,-10.816725 h 8.7819 q -2.46322,16.492828 -5.46192,30.843731 -2.8916,14.350903 -6.21158,25.3818212 h -8.99609 q -0.85677,-3.319985 -1.92773,-8.4606072 -0.96387,-5.247718 -2.03483,-11.138014 -0.96387,-5.890296 -1.82064,-11.780592 -0.85677,-5.997392 -1.49935,-10.923822 -0.64257,4.92643 -1.71354,10.923822 -1.07096,5.890296 -2.24902,11.780592 -1.17806,5.890296 -2.35612,11.138014 -1.07096,5.1406222 -1.82063,8.4606072 z"
           style="letter-spacing:-5.05582333px;stroke-width:1.25503469px"
           id="path1631"
           inkscape:connector-curvature="0" />
      </g>
      <g
         aria-label="certified  by"
         style="font-style:normal;font-variant:normal;font-weight:normal;font-stretch:normal;font-size:107.09629059px;line-height:150%;font-family:'Ubuntu Condensed';-inkscape-font-specification:'Ubuntu Condensed, ';text-align:center;letter-spacing:-5.02013874px;word-spacing:0px;text-anchor:middle;fill:#777777;fill-opacity:1;stroke:none;stroke-width:1.25503469px;stroke-linecap:butt;stroke-linejoin:miter;stroke-opacity:1"
         id="text1513">
        <path
           d="m 419.17357,98.951875 q -5.7832,0 -9.63866,-2.249022 -3.85547,-2.249022 -6.31869,-6.104488 -2.35611,-3.962563 -3.42708,-9.317377 -0.96386,-5.354815 -0.96386,-11.673496 0,-13.922518 5.03352,-21.740547 5.14062,-7.925126 15.42187,-7.925126 3.10579,0 5.56901,0.749674 2.46321,0.749674 4.60514,1.927734 l -2.35612,7.603836 q -3.31999,-2.141926 -7.38965,-2.141926 -5.7832,0 -8.5677,5.247719 -2.67741,5.247718 -2.67741,16.278636 0,4.60514 0.53548,8.567703 0.53549,3.855467 1.82064,6.63997 1.39225,2.784504 3.53418,4.390948 2.24902,1.606444 5.6761,1.606444 2.35612,0 4.17676,-0.535481 1.92773,-0.642578 3.64127,-1.606444 l 2.03483,7.175451 q -1.71354,1.178059 -4.60514,2.141926 -2.7845,0.963866 -6.10449,0.963866 z"
           style="letter-spacing:-5.05582333px;fill:#777777;fill-opacity:1;stroke-width:1.25503469px"
           id="path1634"
           inkscape:connector-curvature="0" />
        <path
           d="m 440.53372,72.177803 q 0.1071,4.069659 0.74967,7.49674 0.64258,3.319985 2.03483,5.890296 1.49935,2.463215 3.85547,3.855467 2.46321,1.392251 6.21158,1.392251 3.1058,0 5.67611,-0.85677 2.6774,-0.963867 3.85546,-1.606444 l 1.71354,7.389644 q -1.39225,0.963866 -4.71223,2.034829 -3.21289,1.178059 -7.71094,1.178059 -5.89029,0 -9.95995,-2.141925 -3.96256,-2.141926 -6.53287,-5.997393 -2.46322,-3.855466 -3.53418,-9.210281 -1.07096,-5.354814 -1.07096,-11.780592 0,-15.528962 5.14062,-22.704413 5.14062,-7.175452 13.60123,-7.175452 9.53157,0 13.49413,7.175452 3.96256,7.175451 3.96256,20.134102 0,1.17806 0,2.463215 0,1.178059 -0.10709,2.463215 z m 9.31738,-24.417954 q -4.60514,0 -6.74707,4.60514 -2.03483,4.605141 -2.46321,12.316074 h 17.02831 q 0,-7.81803 -1.60645,-12.316074 -1.60644,-4.60514 -6.21158,-4.60514 z"
           style="letter-spacing:-5.05582333px;fill:#777777;fill-opacity:1;stroke-width:1.25503469px"
           id="path1636"
           inkscape:connector-curvature="0" />
        <path
           d="m 500.11553,49.687582 q -3.42709,-1.499348 -7.71094,-1.499348 -3.96256,0 -7.38964,1.392252 v 47.979138 h -9.21028 V 43.797286 q 3.10579,-1.499348 7.06835,-2.463215 4.06966,-1.070963 8.889,-1.070963 2.57031,0 5.14062,0.321289 2.57031,0.321289 4.81933,1.178059 z"
           style="letter-spacing:-5.05582333px;fill:#777777;fill-opacity:1;stroke-width:1.25503469px"
           id="path1638"
           inkscape:connector-curvature="0" />
        <path
           d="m 514.45752,41.334071 h 14.13671 v 7.925126 h -14.13671 v 30.950828 q 0,5.783199 2.03483,8.139318 2.14193,2.249022 5.67611,2.249022 1.82063,0 3.42708,-0.535482 1.71354,-0.535481 2.8916,-1.285155 l 1.82063,7.389644 q -4.39094,2.570311 -9.31737,2.570311 -7.92513,0 -11.88769,-4.390948 -3.85547,-4.498044 -3.85547,-14.779288 V 26.233494 l 9.21028,-1.606444 z"
           style="letter-spacing:-5.05582333px;fill:#777777;fill-opacity:1;stroke-width:1.25503469px"
           id="path1640"
           inkscape:connector-curvature="0" />
        <path
           d="m 544.34856,97.559624 h -9.21028 V 41.334071 h 9.21028 z m -4.60514,-66.185508 q -2.46322,0 -4.28385,-1.606444 -1.71354,-1.713541 -1.71354,-4.498044 0,-2.784504 1.71354,-4.390948 1.82063,-1.713541 4.28385,-1.713541 2.46321,0 4.17675,1.713541 1.82064,1.606444 1.82064,4.390948 0,2.784503 -1.82064,4.498044 -1.71354,1.606444 -4.17675,1.606444 z"
           style="letter-spacing:-5.05582333px;fill:#777777;fill-opacity:1;stroke-width:1.25503469px"
           id="path1642"
           inkscape:connector-curvature="0" />
        <path
           d="m 572.40557,14.452902 q 2.46322,0 4.49805,0.428385 2.03483,0.428386 3.53417,1.070963 l -1.71354,7.282548 q -2.7845,-0.963867 -5.46191,-0.963867 -3.85546,0 -5.99739,2.570311 -2.03483,2.463215 -2.03483,8.6748 v 7.818029 h 14.458 v 7.925126 h -14.458 v 48.300427 h -9.21028 V 33.516042 q 0,-9.103185 4.06966,-14.029614 4.06966,-5.033526 12.31607,-5.033526 z m 24.52505,83.106722 h -9.21028 V 41.334071 h 9.21028 z m -4.60514,-66.185508 q -2.46321,0 -4.28385,-1.606444 -1.71354,-1.713541 -1.71354,-4.498044 0,-2.784504 1.71354,-4.390948 1.82064,-1.713541 4.28385,-1.713541 2.46322,0 4.17676,1.713541 1.82063,1.606444 1.82063,4.390948 0,2.784503 -1.82063,4.498044 -1.71354,1.606444 -4.17676,1.606444 z"
           style="letter-spacing:-5.05582333px;fill:#777777;fill-opacity:1;stroke-width:1.25503469px"
           id="path1644"
           inkscape:connector-curvature="0" />
        <path
           d="m 609.74929,72.177803 q 0.10709,4.069659 0.74967,7.49674 0.64258,3.319985 2.03483,5.890296 1.49935,2.463215 3.85547,3.855467 2.46321,1.392251 6.21158,1.392251 3.10579,0 5.67611,-0.85677 2.6774,-0.963867 3.85546,-1.606444 l 1.71354,7.389644 q -1.39225,0.963866 -4.71223,2.034829 -3.21289,1.178059 -7.71094,1.178059 -5.89029,0 -9.95995,-2.141925 -3.96256,-2.141926 -6.53288,-5.997393 -2.46321,-3.855466 -3.53417,-9.210281 -1.07097,-5.354814 -1.07097,-11.780592 0,-15.528962 5.14063,-22.704413 5.14062,-7.175452 13.60122,-7.175452 9.53157,0 13.49414,7.175452 3.96256,7.175451 3.96256,20.134102 0,1.17806 0,2.463215 0,1.178059 -0.1071,2.463215 z m 9.31737,-24.417954 q -4.60514,0 -6.74706,4.60514 -2.03483,4.605141 -2.46322,12.316074 h 17.02831 q 0,-7.81803 -1.60644,-12.316074 -1.60644,-4.60514 -6.21159,-4.60514 z"
           style="letter-spacing:-5.05582333px;fill:#777777;fill-opacity:1;stroke-width:1.25503469px"
           id="path1646"
           inkscape:connector-curvature="0" />
        <path
           d="m 669.224,49.794678 q -3.10579,-1.713541 -6.63997,-1.713541 -2.67741,0 -4.71224,1.070963 -2.03483,1.070963 -3.53418,3.534178 -1.39225,2.463215 -2.14192,6.532874 -0.74968,4.069659 -0.74968,10.067051 0,11.566399 2.9987,16.599925 3.10579,4.926429 9.31738,4.926429 1.17806,0 2.57031,-0.107096 1.39225,-0.214192 2.8916,-0.642578 z m 0,-33.735331 9.21028,-1.606445 v 81.607374 q -2.9987,1.285155 -6.85416,2.034829 -3.85547,0.85677 -7.81803,0.85677 -11.5664,0 -16.81412,-7.389644 -5.14062,-7.389644 -5.14062,-22.276028 0,-6.747066 1.07096,-12.101881 1.17806,-5.461911 3.53418,-9.210281 2.46321,-3.855466 6.21158,-5.890296 3.74837,-2.141926 8.889,-2.141926 2.46321,0 4.17675,0.535482 1.82064,0.428385 3.53418,1.285155 z"
           style="letter-spacing:-5.05582333px;fill:#777777;fill-opacity:1;stroke-width:1.25503469px"
           id="path1648"
           inkscape:connector-curvature="0" />
        <path
           d="m 730.78265,90.062883 q 1.49934,0.428386 2.8916,0.642578 1.39225,0.107096 2.57031,0.107096 6.21158,0 9.21028,-4.926429 3.10579,-5.033526 3.10579,-16.599925 0,-5.997392 -0.74967,-10.067051 -0.74968,-4.069659 -2.24903,-6.532874 -1.39225,-2.463215 -3.42708,-3.534178 -2.03483,-1.070963 -4.71223,-1.070963 -3.53418,0 -6.63997,1.713541 z m 0,-48.300427 q 1.71354,-0.85677 3.42708,-1.285155 1.82063,-0.535482 4.28385,-0.535482 5.24772,0 8.99609,2.141926 3.74837,2.03483 6.10449,5.890296 2.35611,3.74837 3.42708,9.210281 1.17806,5.354815 1.17806,12.101881 0,14.886384 -5.35482,22.276028 -5.24772,7.389644 -16.59992,7.389644 -3.96257,0 -7.81803,-0.85677 -3.85547,-0.749674 -6.85416,-2.034829 V 16.059347 l 9.21028,-1.606445 z"
           style="letter-spacing:-5.05582333px;fill:#777777;fill-opacity:1;stroke-width:1.25503469px"
           id="path1650"
           inkscape:connector-curvature="0" />
        <path
           d="m 778.94701,85.886128 q 3.10579,-10.709629 5.67611,-21.526354 2.57031,-10.816726 4.92642,-23.025703 h 9.10319 q -1.60644,7.818029 -3.53418,15.421866 -1.82064,7.603837 -3.85546,14.672192 -1.92774,7.068355 -3.96257,13.387036 -1.92773,6.211585 -3.64127,11.352207 -2.03483,5.997388 -3.96256,10.067048 -1.82064,4.17676 -4.06966,6.63997 -2.14193,2.57031 -4.71224,3.64128 -2.57031,1.17806 -6.10449,1.17806 -1.92773,0 -3.85546,-0.53549 -1.92774,-0.42838 -3.21289,-0.96386 l 1.71354,-7.49674 q 2.7845,1.17806 5.24772,1.17806 3.10579,0 5.03352,-2.24902 1.92773,-2.24903 3.74837,-6.74707 l 1.07096,-2.677409 q -2.03483,-5.569007 -4.17675,-12.316073 -2.03483,-6.854163 -4.06966,-14.243807 -1.92773,-7.389644 -3.74837,-15.100577 -1.82064,-7.818029 -3.31999,-15.207673 h 9.74577 q 0.85677,5.033526 2.03483,11.030918 1.17806,5.997392 2.46321,11.994785 1.39225,5.997392 2.7845,11.673495 1.39226,5.569007 2.67741,9.852859 z"
           style="letter-spacing:-5.05582333px;fill:#777777;fill-opacity:1;stroke-width:1.25503469px"
           id="path1652"
           inkscape:connector-curvature="0" />
      </g>
    </g>
  </g>
  <g
     inkscape:groupmode="layer"
     id="layer2"
     inkscape:label="doab logo"
     style="display:inline"
     transform="translate(-97.379885,-3.3521634)">
    <g
       id="g1611"
       transform="matrix(0.53622332,0,0,0.53622332,203.04826,8.4908468)">
      <path
         sodipodi:nodetypes="sssssssss"
         inkscape:connector-curvature="0"
         id="rect916"
         d="M 168.83268,0.44253325 412.47865,17.934864 c 3.6423,0.261495 5.21531,5.185086 3.46146,7.669029 L 341.19943,131.45766 c -2.03407,2.88081 -7.55158,5.49899 -14.7021,4.38317 L 148.8844,108.12479 c -7.22147,-1.12689 -11.13166,-6.47434 -9.55474,-13.7192 L 158.22433,7.5976532 c 1.05892,-4.8650027 5.35299,-7.5324235 10.60835,-7.15511995 z"
         style="display:inline;opacity:1;fill:#f68212;fill-opacity:1;stroke:#000000;stroke-width:0;stroke-miterlimit:4;stroke-dasharray:none;stroke-opacity:1" />
      <g
         aria-label="doab"
         transform="scale(1.0050575,0.99496795)"
         style="font-style:normal;font-variant:normal;font-weight:normal;font-stretch:normal;font-size:135.33102417px;line-height:150%;font-family:'Roboto Slab';-inkscape-font-specification:'Roboto Slab';text-align:center;letter-spacing:0px;word-spacing:0px;text-anchor:middle;fill:#000000;fill-opacity:1;stroke:none;stroke-width:1.58591044px;stroke-linecap:butt;stroke-linejoin:miter;stroke-opacity:1"
         id="text855">
        <path
           d="m 178.10595,52.966445 q -3.9246,-2.165297 -8.39052,-2.165297 -3.38328,0 -5.95457,1.35331 -2.57129,1.353311 -4.46592,4.465924 -1.75931,3.112614 -2.70662,8.255193 -0.94732,5.142579 -0.94732,12.721116 0,14.615751 3.78927,20.976309 3.9246,6.22523 11.7738,6.22523 1.48864,0 3.24794,-0.13533 1.75931,-0.27067 3.65394,-0.81199 z m 0,-42.629273 11.63847,-2.0299653 V 111.42945 q -3.78927,1.62397 -8.66119,2.57129 -4.87191,1.08264 -9.87916,1.08264 -14.61575,0 -21.24697,-9.33784 -6.49589,-9.337837 -6.49589,-28.148849 0,-8.525854 1.35331,-15.292406 1.48864,-6.901882 4.46592,-11.638468 3.11262,-4.871917 7.8492,-7.443206 4.73659,-2.706621 11.23248,-2.706621 3.11261,0 5.27791,0.676656 2.30062,0.541324 4.46592,1.623972 z"
           style="font-style:normal;font-variant:normal;font-weight:normal;font-stretch:normal;font-family:'Ubuntu Condensed';-inkscape-font-specification:'Ubuntu Condensed, ';word-spacing:0px;fill:#ffffff;fill-opacity:1;stroke-width:1.58591044px"
           id="path843" />
        <path
           d="m 252.29979,77.867353 q 0,8.390524 -1.48864,15.292406 -1.48864,6.766551 -4.60125,11.638471 -2.97728,4.87191 -7.71387,7.57853 -4.60126,2.70662 -10.96181,2.70662 -6.36056,0 -11.09715,-2.70662 -4.73658,-2.70662 -7.8492,-7.57853 -2.97728,-4.87192 -4.46592,-11.638471 -1.48864,-6.901882 -1.48864,-15.292406 0,-8.255192 1.48864,-15.157075 1.48864,-6.901882 4.46592,-11.773799 3.11262,-5.007248 7.8492,-7.713868 4.73659,-2.706621 11.09715,-2.706621 6.36055,0 10.96181,2.706621 4.73659,2.70662 7.71387,7.713868 3.11261,4.871917 4.60125,11.773799 1.48864,6.901883 1.48864,15.157075 z m -12.17979,0 q 0,-5.954565 -0.67665,-10.826482 -0.67666,-5.007248 -2.1653,-8.525854 -1.48864,-3.653938 -3.9246,-5.548572 -2.43596,-2.029966 -5.81923,-2.029966 -3.51861,0 -5.95457,2.029966 -2.30063,1.894634 -3.9246,5.548572 -1.48864,3.518606 -2.16529,8.525854 -0.67666,4.871917 -0.67666,10.826482 0,5.954565 0.67666,10.961813 0.67665,4.871917 2.16529,8.390524 1.62397,3.51861 3.9246,5.54857 2.43596,1.89464 5.95457,1.89464 3.38327,0 5.81923,-1.89464 2.43596,-2.02996 3.9246,-5.54857 1.48864,-3.518607 2.1653,-8.390524 Q 240.12,83.821918 240.12,77.867353 Z"
           style="font-style:normal;font-variant:normal;font-weight:normal;font-stretch:normal;font-family:'Ubuntu Condensed';-inkscape-font-specification:'Ubuntu Condensed, ';word-spacing:0px;fill:#ffffff;fill-opacity:1;stroke-width:1.58591044px"
           id="path845" />
        <path
           d="m 266.91935,43.763935 q 3.51861,-1.488641 7.44321,-2.300627 3.9246,-0.947318 8.52585,-0.947318 9.47318,0 15.42774,5.954565 5.95457,5.819235 5.95457,18.269689 v 47.095196 q -4.87192,1.35331 -10.0145,2.1653 -5.00725,0.81198 -9.87916,0.81198 -4.87192,0 -9.20251,-1.21798 -4.19527,-1.21798 -7.44321,-3.9246 -3.11261,-2.70662 -5.00725,-6.76655 -1.89463,-4.195259 -1.89463,-10.149824 0,-5.548572 1.62397,-9.608503 1.7593,-4.195262 4.73659,-6.901882 2.97728,-2.841952 7.03721,-4.195262 4.05993,-1.488641 8.79652,-1.488641 4.46592,0 9.87916,1.082648 v -6.495889 q 0,-7.8492 -3.11261,-10.961813 -2.97729,-3.112614 -8.66119,-3.112614 -3.11261,0 -5.95456,0.676655 -2.70662,0.541325 -5.81924,1.894635 z m 5.54858,48.8545 q 0,6.225227 3.24794,9.202505 3.24795,2.97729 9.20251,2.97729 3.65394,0 7.98453,-0.94732 V 81.250629 q -4.05993,-1.082649 -7.98453,-1.082649 -2.57129,0 -4.87192,0.676656 -2.30062,0.541324 -4.05993,2.029965 -1.62397,1.35331 -2.57129,3.789269 -0.94731,2.300627 -0.94731,5.954565 z"
           style="font-style:normal;font-variant:normal;font-weight:normal;font-stretch:normal;font-family:'Ubuntu Condensed';-inkscape-font-specification:'Ubuntu Condensed, ';word-spacing:0px;fill:#ffffff;fill-opacity:1;stroke-width:1.58591044px"
           id="path847" />
        <path
           d="m 332.01852,103.85091 q 1.89464,0.54132 3.65394,0.81199 1.7593,0.13533 3.24795,0.13533 7.84919,0 11.63846,-6.22523 3.9246,-6.360558 3.9246,-20.976309 0,-7.578537 -0.94731,-12.721116 -0.94732,-5.142579 -2.84196,-8.255193 -1.7593,-3.112613 -4.33059,-4.465924 -2.57129,-1.35331 -5.95456,-1.35331 -4.46593,0 -8.39053,2.165297 z m 0,-61.034292 q 2.1653,-1.082648 4.3306,-1.623972 2.30062,-0.676656 5.41324,-0.676656 6.63122,0 11.3678,2.706621 4.73659,2.571289 7.71387,7.443206 2.97728,4.736586 4.33059,11.638468 1.48865,6.766552 1.48865,15.292406 0,18.811012 -6.76656,28.148849 -6.63122,9.33784 -20.9763,9.33784 -5.00725,0 -9.87917,-1.08264 -4.87192,-0.94732 -8.66118,-2.57129 V 10.337172 l 11.63846,-2.0299653 z"
           style="font-style:normal;font-variant:normal;font-weight:normal;font-stretch:normal;font-family:'Ubuntu Condensed';-inkscape-font-specification:'Ubuntu Condensed, ';word-spacing:0px;fill:#ffffff;fill-opacity:1;stroke-width:1.58591044px"
           id="path849" />
      </g>
    </g>
  </g>
</svg>
